<svg width="30" height="31" viewBox="0 0 30 31" fill="none" xmlns="http://www.w3.org/2000/svg">
<path d="M15 30.1429C6.72558 30.1429 0 23.4174 0 15.1429C0 6.86853 6.72558 0.142944 15 0.142944C23.2744 0.142944 30 6.86853 30 15.1429C30 23.4174 23.2744 30.1429 15 30.1429ZM15 2.23597C7.88372 2.23597 2.09302 8.02667 2.09302 15.1429C2.09302 22.2592 7.88372 28.0499 15 28.0499C22.1163 28.0499 27.907 22.2592 27.907 15.1429C27.907 8.02667 22.1163 2.23597 15 2.23597Z" fill="white"/>
<path d="M20.1761 20.6266C19.9947 20.6266 19.8134 20.5848 19.6459 20.4731L15.3203 17.8918C14.2459 17.2499 13.4506 15.8406 13.4506 14.5987V8.87781C13.4506 8.30572 13.925 7.8313 14.4971 7.8313C15.0692 7.8313 15.5436 8.30572 15.5436 8.87781V14.5987C15.5436 15.1011 15.9622 15.8406 16.3947 16.0918L20.7203 18.6731C21.2227 18.9662 21.3761 19.608 21.0831 20.1104C20.8738 20.4452 20.525 20.6266 20.1761 20.6266Z" fill="white"/>
</svg>
