<svg width="40" height="40" viewBox="0 0 40 40" fill="none" xmlns="http://www.w3.org/2000/svg">
<path d="M25.1163 40H16.7442V26.5117H14.9767C13.8977 26.5117 13.0233 25.6372 13.0233 24.5582V21.0233C13.0233 19.9442 13.8977 19.0698 14.9767 19.0698H16.7442V14.4186C16.7442 10.5675 19.8698 7.44189 23.7209 7.44189H28.7442C29.8233 7.44189 30.6977 8.31629 30.6977 9.39536V13.8605C30.6977 14.9396 29.8233 15.814 28.7442 15.814H25.1163V19.0698H28.6139C29.2093 19.0698 29.7488 19.3303 30.1209 19.7768C30.493 20.2233 30.6419 20.8186 30.5302 21.3954L29.8233 24.9303C29.6372 25.8419 28.8372 26.4931 27.907 26.4931H25.1163V40ZM19.5349 37.2093H22.3256V23.721H27.2372L27.6093 21.8605H22.3442V14.9768C22.3442 13.8977 23.2186 13.0233 24.2977 13.0233H27.9256V10.2326H23.7209C21.414 10.2326 19.5349 12.1117 19.5349 14.4186V21.8605H15.814V23.721H19.5349V37.2093Z" fill="white"/>
<path d="M25.5814 40H14.4186C4.31628 40 0 35.6837 0 25.5814V14.4186C0 4.31628 4.31628 0 14.4186 0H25.5814C35.6837 0 40 4.31628 40 14.4186V25.5814C40 35.6837 35.6837 40 25.5814 40ZM14.4186 2.7907C5.84186 2.7907 2.7907 5.84186 2.7907 14.4186V25.5814C2.7907 34.1581 5.84186 37.2093 14.4186 37.2093H25.5814C34.1581 37.2093 37.2093 34.1581 37.2093 25.5814V14.4186C37.2093 5.84186 34.1581 2.7907 25.5814 2.7907H14.4186Z" fill="white"/>
</svg>
