<svg width="32" height="33" viewBox="0 0 32 33" fill="none" xmlns="http://www.w3.org/2000/svg">
<path d="M30.955 25.6379C30.955 26.1779 30.835 26.7329 30.58 27.2729C30.325 27.8129 29.995 28.3229 29.56 28.8029C28.825 29.6129 28.015 30.1979 27.1 30.5729C26.2 30.9479 25.225 31.1429 24.175 31.1429C22.645 31.1429 21.01 30.7829 19.285 30.0479C17.56 29.3129 15.835 28.3229 14.125 27.0779C12.4 25.8179 10.765 24.4229 9.205 22.8779C7.66 21.3179 6.265 19.6829 5.02 17.9729C3.79 16.2629 2.8 14.5529 2.08 12.8579C1.36 11.1479 1 9.51294 1 7.95294C1 6.93294 1.18 5.95794 1.54 5.05794C1.9 4.14294 2.47 3.30294 3.265 2.55294C4.225 1.60794 5.275 1.14294 6.385 1.14294C6.805 1.14294 7.225 1.23294 7.6 1.41294C7.99 1.59294 8.335 1.86294 8.605 2.25294L12.085 7.15794C12.355 7.53294 12.55 7.87794 12.685 8.20794C12.82 8.52294 12.895 8.83794 12.895 9.12294C12.895 9.48294 12.79 9.84294 12.58 10.1879C12.385 10.5329 12.1 10.8929 11.74 11.2529L10.6 12.4379C10.435 12.6029 10.36 12.7979 10.36 13.0379C10.36 13.1579 10.375 13.2629 10.405 13.3829C10.45 13.5029 10.495 13.5929 10.525 13.6829C10.795 14.1779 11.26 14.8229 11.92 15.6029C12.595 16.3829 13.315 17.1779 14.095 17.9729C14.905 18.7679 15.685 19.5029 16.48 20.1779C17.26 20.8379 17.905 21.2879 18.415 21.5579C18.49 21.5879 18.58 21.6329 18.685 21.6779C18.805 21.7229 18.925 21.7379 19.06 21.7379C19.315 21.7379 19.51 21.6479 19.675 21.4829L20.815 20.3579C21.19 19.9829 21.55 19.6979 21.895 19.5179C22.24 19.3079 22.585 19.2029 22.96 19.2029C23.245 19.2029 23.545 19.2629 23.875 19.3979C24.205 19.5329 24.55 19.7279 24.925 19.9829L29.89 23.5079C30.28 23.7779 30.55 24.0929 30.715 24.4679C30.865 24.8429 30.955 25.2179 30.955 25.6379Z" stroke="white" stroke-width="2" stroke-miterlimit="10"/>
<path d="M25.75 11.6429C25.75 10.7429 25.045 9.36294 23.995 8.23794C23.035 7.20294 21.76 6.39294 20.5 6.39294" stroke="white" stroke-width="2" stroke-linecap="round" stroke-linejoin="round"/>
<path d="M31 11.6429C31 5.83794 26.305 1.14294 20.5 1.14294" stroke="white" stroke-width="2" stroke-linecap="round" stroke-linejoin="round"/>
</svg>
