<svg width="40" height="40" viewBox="0 0 40 40" fill="none" xmlns="http://www.w3.org/2000/svg">
<path d="M25.5814 40H14.4186C4.31628 40 0 35.6837 0 25.5814V14.4186C0 4.31628 4.31628 0 14.4186 0H25.5814C35.6837 0 40 4.31628 40 14.4186V25.5814C40 35.6837 35.6837 40 25.5814 40ZM14.4186 2.7907C5.84186 2.7907 2.7907 5.84186 2.7907 14.4186V25.5814C2.7907 34.1581 5.84186 37.2093 14.4186 37.2093H25.5814C34.1581 37.2093 37.2093 34.1581 37.2093 25.5814V14.4186C37.2093 5.84186 34.1581 2.7907 25.5814 2.7907H14.4186Z" fill="white"/>
<path d="M20 27.907C15.6465 27.907 12.093 24.3535 12.093 20C12.093 15.6465 15.6465 12.093 20 12.093C24.3535 12.093 27.907 15.6465 27.907 20C27.907 24.3535 24.3535 27.907 20 27.907ZM20 14.8837C17.1721 14.8837 14.8837 17.1721 14.8837 20C14.8837 22.8279 17.1721 25.1163 20 25.1163C22.8279 25.1163 25.1163 22.8279 25.1163 20C25.1163 17.1721 22.8279 14.8837 20 14.8837Z" fill="white"/>
<path d="M29.3024 11.6277C29.0605 11.6277 28.8186 11.5719 28.5954 11.4789C28.3721 11.3859 28.1675 11.2556 27.9814 11.0882C27.814 10.9022 27.6651 10.6975 27.5721 10.4742C27.4791 10.251 27.4419 10.0091 27.4419 9.76727C27.4419 9.52541 27.4791 9.28355 27.5721 9.06029C27.6838 8.81843 27.814 8.63239 27.9814 8.44634C28.0745 8.37192 28.1675 8.2789 28.2605 8.22308C28.3721 8.14867 28.4838 8.09285 28.5954 8.05564C28.707 7.99983 28.8186 7.96262 28.9489 7.94401C29.5442 7.81378 30.1768 8.01843 30.6233 8.44634C30.7907 8.63239 30.921 8.81843 31.014 9.06029C31.107 9.28355 31.1628 9.52541 31.1628 9.76727C31.1628 10.0091 31.107 10.251 31.014 10.4742C30.921 10.6975 30.7907 10.9022 30.6233 11.0882C30.4372 11.2556 30.2326 11.3859 30.0093 11.4789C29.7861 11.5719 29.5442 11.6277 29.3024 11.6277Z" fill="white"/>
</svg>
