<svg width="32" height="33" viewBox="0 0 32 33" fill="none" xmlns="http://www.w3.org/2000/svg">
<path d="M31 11.643V20.6429C31 24.3929 30.25 27.0179 28.57 28.7129L19 19.1429L30.595 7.54797C30.865 8.73297 31 10.083 31 11.643Z" stroke="#FEFEFE" stroke-width="2" stroke-linecap="round" stroke-linejoin="round"/>
<path d="M30.595 7.54794L7.40499 30.7379C2.88999 29.7029 1 26.5829 1 20.6429V11.6429C1 4.14294 4 1.14294 11.5 1.14294H20.5C26.44 1.14294 29.56 3.03294 30.595 7.54794Z" stroke="#FEFEFE" stroke-width="2" stroke-linecap="round" stroke-linejoin="round"/>
<path d="M28.57 28.7129C26.875 30.3929 24.25 31.1429 20.5 31.1429H11.5C9.94004 31.1429 8.59003 31.0079 7.40503 30.7379L19 19.1429L28.57 28.7129Z" stroke="#FEFEFE" stroke-width="2" stroke-linecap="round" stroke-linejoin="round"/>
<path d="M7.36003 10.1129C8.38003 5.7179 14.98 5.7179 16 10.1129C16.585 12.6929 14.965 14.8829 13.54 16.2329C12.505 17.2229 10.87 17.2229 9.82004 16.2329C8.39504 14.8829 6.76003 12.6929 7.36003 10.1129Z" stroke="#FEFEFE" stroke-width="2"/>
<path d="M11.6419 11.1929H11.6554" stroke="#FEFEFE" stroke-width="2" stroke-linecap="round" stroke-linejoin="round"/>
</svg>
