<svg width="100" height="79" viewBox="0 0 100 79" fill="none" xmlns="http://www.w3.org/2000/svg">
<path d="M23.2956 15.2657C25.881 15.2657 27.8247 15.7114 29.1265 16.6026C30.4284 17.4938 31.0793 19.0988 31.0793 21.4176C31.0793 23.7495 30.4284 25.3677 29.1265 26.2721C27.8247 27.1765 25.881 27.6262 23.2956 27.6211H20.1931V34.1197H18V15.2657H23.2956ZM23.323 25.7505C24.075 25.7612 24.8265 25.7073 25.5693 25.5893C26.1697 25.4822 26.7483 25.2766 27.2817 24.9809C27.816 24.6867 28.2387 24.225 28.4847 23.6669C28.7524 23.0788 28.8862 22.3301 28.8862 21.4206C28.8862 19.7264 28.4178 18.5898 27.481 18.0109C26.5441 17.4319 25.1581 17.141 23.323 17.1379H20.1931V25.7505H23.323Z" fill="white"/>
<path d="M33.9142 34.1212V32.2491H37.6585V22.4609L34.9043 22.7012V20.829L37.9794 20.5614C39.1383 20.46 39.7177 20.9948 39.7177 22.1659V32.2491H43.4621V34.1212H33.9142ZM38.3535 18.7166C38.0997 18.724 37.847 18.6804 37.6104 18.5885C37.3737 18.4965 37.1579 18.358 36.9756 18.1813C36.7966 18.0083 36.6555 17.8 36.5613 17.5696C36.467 17.3392 36.4217 17.0918 36.4281 16.8429C36.4235 16.5986 36.4698 16.356 36.564 16.1305C36.6583 15.9051 36.7985 15.7017 36.9756 15.5335C37.3489 15.1904 37.8374 15 38.3444 15C38.8514 15 39.3399 15.1904 39.7132 15.5335C39.8938 15.6998 40.0372 15.9024 40.1339 16.1281C40.2307 16.3538 40.2785 16.5974 40.2744 16.8429C40.2805 17.093 40.2337 17.3415 40.1369 17.5721C40.0402 17.8028 39.8958 18.0104 39.7132 18.1813C39.5329 18.3555 39.32 18.4924 39.0867 18.5843C38.8534 18.6762 38.6042 18.7211 38.3535 18.7166Z" fill="white"/>
<path d="M60.3662 32.2491V37.6588H58.1731V34.1213H47.9606V37.6588H45.7615V32.2491H47.5272C48.2637 30.7264 48.7759 29.1051 49.048 27.4357C49.3522 25.6705 49.5043 23.4683 49.5043 20.8291H58.6065V32.2491H60.3662ZM49.7202 32.2491H56.412V22.7013H51.673C51.5483 26.691 50.8974 29.8736 49.7202 32.2491Z" fill="white"/>
<path d="M72.8828 20.8291H75.0484V34.1213H72.8828V28.3984H65.3941V34.1213H63.201V20.8291H65.3941V26.5262H72.8828V20.8291Z" fill="white"/>
<path d="M78.446 34.1212V32.2491H82.1904V22.4609L79.4422 22.7012V20.829L82.5173 20.5614C83.6762 20.46 84.2557 20.9948 84.2557 22.1659V32.2491H88V34.1212H78.446ZM82.8854 18.7166C82.6316 18.724 82.3789 18.6804 82.1422 18.5885C81.9056 18.4965 81.6897 18.358 81.5075 18.1813C81.3285 18.0083 81.1874 17.8 81.0931 17.5696C80.9989 17.3392 80.9535 17.0918 80.96 16.8429C80.9553 16.5986 81.0016 16.356 81.0959 16.1305C81.1901 15.9051 81.3303 15.7017 81.5075 15.5335C81.8808 15.1904 82.3693 15 82.8763 15C83.3833 15 83.8718 15.1904 84.245 15.5335C84.4257 15.6998 84.5691 15.9024 84.6658 16.1281C84.7625 16.3538 84.8104 16.5974 84.8062 16.8429C84.8124 17.093 84.7655 17.3415 84.6688 17.5721C84.5721 17.8028 84.4277 18.0104 84.245 18.1813C84.0647 18.3555 83.8518 18.4924 83.6185 18.5843C83.3852 18.6762 83.1361 18.7211 82.8854 18.7166Z" fill="white"/>
<path d="M23.2956 44.1619C25.881 44.1619 27.8247 44.6075 29.1265 45.4987C30.4284 46.39 31.0793 47.995 31.0793 50.3137C31.0793 52.6457 30.4284 54.2639 29.1265 55.1683C27.8247 56.0727 25.881 56.5223 23.2956 56.5173H20.1931V63.0158H18V44.1573L23.2956 44.1619ZM23.323 54.6466C24.075 54.6574 24.8265 54.6035 25.5693 54.4854C26.1677 54.3803 26.7447 54.1773 27.2772 53.8847C27.8144 53.5893 28.2389 53.1247 28.4847 52.5631C28.7524 51.975 28.8862 51.2262 28.8862 50.3168C28.8862 48.6226 28.4178 47.486 27.481 46.907C26.5441 46.3281 25.1581 46.0371 23.323 46.0341H20.1931V54.6466H23.323Z" fill="white"/>
<path d="M33.032 56.1979C33.032 54.0931 33.6246 52.4434 34.8099 51.2491C35.9951 50.0547 37.5509 49.4575 39.4773 49.4575C41.3683 49.4575 42.8749 50.0283 43.9973 51.17C45.1197 52.3116 45.6804 53.8984 45.6793 55.9302V56.7865H35.1718C35.2418 58.1765 35.6473 59.304 36.3885 60.1688C37.1297 61.0337 38.2662 61.4661 39.7982 61.4661C40.9034 61.4661 41.8128 61.203 42.5266 60.6768C43.2404 60.1506 43.7129 59.3795 43.9441 58.3636H46.1356C45.9968 58.9409 45.7857 59.4983 45.5075 60.0228C45.1988 60.5846 44.8212 61.1057 44.3836 61.5741C43.8546 62.1284 43.2052 62.5535 42.4856 62.8166C41.6272 63.1402 40.7155 63.2992 39.7982 63.2851C37.5514 63.2851 35.8618 62.621 34.7292 61.2927C33.5967 59.9645 33.031 58.2663 33.032 56.1979ZM35.1718 55.1333H43.5365C43.5365 54.0292 43.1816 53.1167 42.4719 52.3958C41.7622 51.6749 40.7635 51.3135 39.4758 51.3114C38.1922 51.3114 37.1535 51.6774 36.3596 52.4095C35.9775 52.7502 35.6735 53.1694 35.4685 53.6385C35.2635 54.1076 35.1623 54.6154 35.1718 55.1272V55.1333Z" fill="white"/>
<path d="M59.1359 49.7251H61.3289V63.0173H59.1359V58.2038L50.8184 58.7376C49.5875 58.8086 48.972 58.2003 48.972 56.9126V49.7251H51.1651V56.8731L59.1359 56.3393V49.7251Z" fill="white"/>
<path d="M64.6991 63.0174V61.1452H68.4434V51.357L65.6892 51.5973V49.7252L68.7643 49.4575C69.9232 49.351 70.5026 49.8859 70.5026 51.062V61.1452H74.247V63.0174H64.6991ZM69.1384 47.6127C68.8847 47.6201 68.632 47.5765 68.3953 47.4846C68.1586 47.3926 67.9428 47.2542 67.7606 47.0774C67.5815 46.9044 67.4404 46.6961 67.3462 46.4657C67.2519 46.2353 67.2066 45.9879 67.2131 45.739C67.2084 45.4947 67.2547 45.2521 67.3489 45.0267C67.4432 44.8012 67.5834 44.5979 67.7606 44.4296C68.1338 44.0865 68.6223 43.8961 69.1293 43.8961C69.6363 43.8961 70.1248 44.0865 70.4981 44.4296C70.6787 44.5959 70.8221 44.7985 70.9189 45.0242C71.0156 45.2499 71.0634 45.4935 71.0593 45.739C71.0654 45.9891 71.0186 46.2376 70.9219 46.4682C70.8251 46.6989 70.6807 46.9065 70.4981 47.0774C70.3178 47.2516 70.1049 47.3886 69.8716 47.4804C69.6383 47.5723 69.3891 47.6172 69.1384 47.6127Z" fill="white"/>
</svg>
