<svg width="58" height="40" viewBox="0 0 58 40" fill="none" xmlns="http://www.w3.org/2000/svg">
<path d="M4.38777 0.220182C6.52999 0.220182 8.14044 0.589324 9.21911 1.32761C10.2978 2.06589 10.8371 3.39547 10.8371 5.31635C10.8371 7.24815 10.2978 8.58865 9.21911 9.33785C8.14044 10.0871 6.52999 10.4596 4.38777 10.4554H1.81711V15.8388H0V0.220182H4.38777ZM4.41045 8.90572C5.03354 8.91464 5.65624 8.86996 6.27167 8.77217C6.76917 8.68348 7.2486 8.51321 7.69057 8.26823C8.13326 8.02452 8.48351 7.64203 8.68734 7.1797C8.90912 6.69255 9.02001 6.07227 9.02001 5.31887C9.02001 3.91538 8.63189 2.97384 7.85565 2.49425C7.07941 2.01466 5.93101 1.7736 4.41045 1.77108H1.81711V8.90572H4.41045Z" fill="white"/>
<path d="M13.186 15.84V14.2891H16.2885V6.18061L14.0064 6.37967V4.82877L16.5544 4.60704C17.5146 4.52305 17.9947 4.9661 17.9947 5.9362V14.2891H21.0971V15.84H13.186ZM16.8644 3.07882C16.6541 3.08493 16.4447 3.04884 16.2486 2.97267C16.0525 2.8965 15.8737 2.7818 15.7227 2.63534C15.5743 2.49206 15.4574 2.31952 15.3793 2.12866C15.3012 1.9378 15.2637 1.7328 15.269 1.52666C15.2652 1.32427 15.3035 1.12329 15.3816 0.936527C15.4597 0.749767 15.5759 0.581317 15.7227 0.441911C16.032 0.15771 16.4367 -7.62939e-06 16.8568 -7.62939e-06C17.2769 -7.62939e-06 17.6816 0.15771 17.9909 0.441911C18.1406 0.579679 18.2594 0.747561 18.3395 0.93452C18.4197 1.12148 18.4593 1.32328 18.4559 1.52666C18.461 1.73379 18.4222 1.93966 18.342 2.13074C18.2619 2.32181 18.1422 2.49378 17.9909 2.63534C17.8415 2.77967 17.6651 2.89313 17.4718 2.96923C17.2785 3.04533 17.0721 3.08257 16.8644 3.07882Z" fill="white"/>
<path d="M35.1035 14.2892V18.7705H33.2864V15.8401H24.8246V18.7705H23.0024V14.2892H24.4655C25.0757 13.0278 25.5001 11.6847 25.7256 10.3017C25.9776 8.83941 26.1036 7.01512 26.1036 4.82883H33.6455V14.2892H35.1035ZM26.2826 14.2892H31.8271V6.37972H27.9006C27.7972 9.68478 27.2579 12.3213 26.2826 14.2892Z" fill="white"/>
<path d="M45.4744 4.82883H47.2688V15.8401H45.4744V11.0992H39.2695V15.8401H37.4524V4.82883H39.2695V9.5483H45.4744V4.82883Z" fill="white"/>
<path d="M50.0839 15.84V14.2891H53.1863V6.18061L50.9092 6.37967V4.82877L53.4572 4.60704C54.4174 4.52305 54.8976 4.9661 54.8976 5.9362V14.2891H58V15.84H50.0839ZM53.7622 3.07882C53.5519 3.08493 53.3425 3.04884 53.1464 2.97267C52.9503 2.8965 52.7715 2.7818 52.6205 2.63534C52.4722 2.49206 52.3553 2.31952 52.2772 2.12866C52.1991 1.9378 52.1615 1.7328 52.1669 1.52666C52.163 1.32427 52.2013 1.12329 52.2794 0.936527C52.3575 0.749767 52.4737 0.581317 52.6205 0.441911C52.9298 0.15771 53.3345 -7.62939e-06 53.7546 -7.62939e-06C54.1747 -7.62939e-06 54.5794 0.15771 54.8887 0.441911C55.0384 0.579679 55.1572 0.747561 55.2374 0.93452C55.3175 1.12148 55.3572 1.32328 55.3537 1.52666C55.3588 1.73379 55.32 1.93966 55.2399 2.13074C55.1597 2.32181 55.0401 2.49378 54.8887 2.63534C54.7393 2.77967 54.5629 2.89313 54.3696 2.96923C54.1763 3.04533 53.9699 3.08257 53.7622 3.07882Z" fill="white"/>
<path d="M4.38777 24.1577C6.52999 24.1577 8.14044 24.5268 9.21911 25.2651C10.2978 26.0034 10.8371 27.333 10.8371 29.2539C10.8371 31.1857 10.2978 32.5262 9.21911 33.2754C8.14044 34.0246 6.52999 34.3971 4.38777 34.3929H1.81711V39.7763H0V24.1539L4.38777 24.1577ZM4.41045 32.8432C5.03354 32.8522 5.65624 32.8075 6.27167 32.7097C6.76749 32.6226 7.2456 32.4544 7.68679 32.212C8.13192 31.9674 8.48368 31.5825 8.68734 31.1172C8.90912 30.6301 9.02001 30.0098 9.02001 29.2564C9.02001 27.8529 8.63189 26.9114 7.85565 26.4318C7.07941 25.9522 5.93101 25.7111 4.41045 25.7086H1.81711V32.8432H4.41045Z" fill="white"/>
<path d="M12.4551 34.1284C12.4551 32.3847 12.9461 31.0182 13.9282 30.0287C14.9102 29.0393 16.1993 28.5446 17.7955 28.5446C19.3623 28.5446 20.6106 29.0175 21.5406 29.9632C22.4706 30.909 22.9352 32.2234 22.9343 33.9066V34.6159H14.2281C14.286 35.7674 14.6221 36.7014 15.2362 37.4179C15.8503 38.1343 16.792 38.4925 18.0614 38.4925C18.9771 38.4925 19.7307 38.2746 20.3221 37.8387C20.9135 37.4028 21.305 36.764 21.4965 35.9224H23.3124C23.1973 36.4006 23.0225 36.8624 22.7919 37.2969C22.5361 37.7623 22.2233 38.194 21.8607 38.582C21.4224 39.0412 20.8843 39.3933 20.288 39.6113C19.5768 39.8794 18.8214 40.011 18.0614 39.9993C16.1998 39.9993 14.7998 39.4492 13.8614 38.3489C12.923 37.2486 12.4542 35.8418 12.4551 34.1284ZM14.2281 33.2464H21.1588C21.1588 32.3318 20.8648 31.5759 20.2767 30.9787C19.6886 30.3815 18.8612 30.0821 17.7943 30.0804C16.7307 30.0804 15.87 30.3836 15.2122 30.99C14.8956 31.2722 14.6438 31.6195 14.4739 32.0081C14.3041 32.3967 14.2202 32.8174 14.2281 33.2414V33.2464Z" fill="white"/>
<path d="M34.084 28.7663H35.9012V39.7775H34.084V35.79L27.1924 36.2322C26.1725 36.291 25.6626 35.7871 25.6626 34.7204V28.7663H27.4797V34.6876L34.084 34.2454V28.7663Z" fill="white"/>
<path d="M38.6936 39.7775V38.2266H41.796V30.118L39.5139 30.3171V28.7662L42.0619 28.5445C43.0222 28.4563 43.5023 28.8993 43.5023 29.8736V38.2266H46.6047V39.7775H38.6936ZM42.3719 27.0162C42.1616 27.0224 41.9523 26.9863 41.7562 26.9101C41.5601 26.8339 41.3812 26.7192 41.2302 26.5728C41.0819 26.4295 40.965 26.2569 40.8869 26.0661C40.8088 25.8752 40.7712 25.6702 40.7766 25.4641C40.7727 25.2617 40.8111 25.0607 40.8892 24.874C40.9673 24.6872 41.0834 24.5187 41.2302 24.3793C41.5395 24.0951 41.9443 23.9374 42.3644 23.9374C42.7844 23.9374 43.1892 24.0951 43.4985 24.3793C43.6482 24.5171 43.767 24.685 43.8471 24.8719C43.9273 25.0589 43.9669 25.2607 43.9635 25.4641C43.9685 25.6712 43.9297 25.8771 43.8496 26.0682C43.7695 26.2592 43.6498 26.4312 43.4985 26.5728C43.3491 26.7171 43.1727 26.8306 42.9794 26.9067C42.7861 26.9827 42.5796 27.02 42.3719 27.0162Z" fill="white"/>
</svg>
